<?xml version="1.0" standalone="no"?>
<!DOCTYPE svg PUBLIC "-//W3C//DTD SVG 20010904//EN"
 "http://www.w3.org/TR/2001/REC-SVG-20010904/DTD/svg10.dtd">
<svg version="1.0" xmlns="http://www.w3.org/2000/svg"
 width="150.000000pt" height="150.000000pt" viewBox="0 0 150.000000 150.000000"
 preserveAspectRatio="xMidYMid meet">
<metadata>
Created by potrace 1.14, written by Peter Selinger 2001-2017
</metadata>
<g transform="translate(0.000000,150.000000) scale(0.100000,-0.100000)"
fill="#000000" stroke="none">
<path d="M465 1430 c-9 -28 10 -49 41 -45 13 1 28 -3 32 -9 4 -6 8 -49 8 -96
1 -47 2 -90 3 -96 1 -8 68 2 199 29 108 22 199 42 201 43 2 2 4 27 5 56 1 63
9 78 36 71 39 -10 71 47 34 61 -9 3 -136 6 -284 6 -262 0 -269 -1 -275 -20z"/>
<path d="M855 1203 l-71 -15 0 -157 0 -157 100 2 c56 1 104 2 108 3 4 0 -3 22
-14 49 -17 37 -22 70 -24 162 -1 63 -3 118 -3 123 -1 9 -10 8 -96 -10z"/>
<path d="M621 1154 c-36 -8 -67 -16 -69 -19 -3 -2 -6 -40 -7 -84 -2 -54 -10
-93 -24 -126 -12 -26 -21 -49 -21 -50 0 -2 48 -2 108 -1 l107 1 0 148 c0 125
-2 147 -15 146 -8 -1 -44 -7 -79 -15z"/>
<path d="M270 502 c-100 -167 -180 -305 -178 -308 5 -4 91 36 463 215 l160 77
-1 150 c-1 82 -2 154 -3 159 0 7 -50 10 -130 10 l-129 0 -182 -303z"/>
<path d="M790 801 c0 -5 128 -175 162 -216 11 -14 380 -491 404 -523 6 -8 44
24 53 45 23 50 12 77 -125 303 -75 124 -142 234 -148 245 -6 11 -29 49 -50 86
l-38 65 -129 0 c-71 0 -129 -3 -129 -5z"/>
<path d="M784 394 l0 -344 269 0 c214 0 267 3 260 13 -25 32 -292 379 -397
514 -65 84 -121 155 -125 157 -4 3 -7 -150 -7 -340z"/>
<path d="M660 424 c-63 -32 -464 -225 -527 -254 -29 -13 -53 -28 -53 -33 0
-20 35 -66 57 -76 15 -7 123 -11 301 -11 l278 0 -1 194 c0 107 -2 196 -5 199
-3 2 -25 -6 -50 -19z"/>
</g>
</svg>
