<svg id="Layer_1" data-name="Layer 1" xmlns="http://www.w3.org/2000/svg" viewBox="0 0 504 252"><defs><style>.cls-1{fill:#fff;}.cls-2{fill:#231f20;}.cls-3{fill:#ffe512;}</style></defs><title>rm-logo</title><rect class="cls-1" x="29.89" y="189.17" width="439.9" height="1.25"/><path class="cls-1" d="M400.83,221h19c.69,0,1,.22,1,.6h.4v-4.5h-.4c0,.44-.29.66-1,.66H405.67v-5.38h9c.69,0,1,.22,1,.66h.4v-4.61h-.4c0,.49-.29.71-1,.71h-9v-4.88h13.85c.69,0,1,.22,1,.71h.4v-4.55h-.4c0,.38-.29.6-1,.6H400.83v.38c.63,0,.75.22.75.82v17.56c0,.6-.11.82-.75.82Zm-42.14-10.53c-.58,0-.92-.28-.92-.66h-.4v4.83h.4c0-.38.34-.66.92-.66h5v2.28A11.43,11.43,0,0,1,357,218c-4.44,0-8.35-2.28-8.35-7.13,0-4.64,3.92-6.91,8.76-6.91,3.83,0,6.94,1.7,6.94,2.55a1.81,1.81,0,0,1-.06.47l.4.25,2.79-4.5-.41-.17a.81.81,0,0,1-.63.3,27.3,27.3,0,0,1-2.85-1.12,22.18,22.18,0,0,0-6.25-1c-6,0-12.79,3.12-12.79,10.26s5.82,10.26,12.44,10.26a24.81,24.81,0,0,0,11.23-3.07v-.38c-.37-.08-.52-.25-.52-.69v-5.4c0-.6.26-.82.55-.88v-.38ZM293.19,221h19c.69,0,1,.22,1,.6h.4v-4.5h-.4c0,.44-.29.66-1,.66H298v-5.38h9c.69,0,1,.22,1,.66h.4v-4.61h-.4c0,.49-.29.71-1,.71h-9v-4.88h13.85c.69,0,1,.22,1,.71h.41v-4.55h-.41c0,.38-.29.6-1,.6h-18.7v.38c.64,0,.75.22.75.82v17.56c0,.6-.12.82-.75.82ZM242,221h18.15c.69,0,1,.22,1,.6h.4v-4.5h-.4c0,.44-.29.66-1,.66H246.85V202.24c0-.61.11-.82.86-.82V201H242v.38c.63,0,.75.22.75.82v17.56c0,.6-.12.82-.75.82Zm-51.24,0h18.15c.69,0,1,.22,1,.6h.4v-4.5h-.4c0,.44-.29.66-1,.66H195.6V202.24c0-.61.12-.82.86-.82V201h-5.7v.38c.63,0,.75.22.75.82v17.56c0,.6-.12.82-.75.82Zm-44.31-17c4.38,0,7.92,2.44,7.92,7s-3.54,7-7.92,7-7.92-2.44-7.92-7,3.54-7,7.92-7m0-3.24c-6.66,0-12,3.62-12,10.26s5.36,10.26,12,10.26,12-3.62,12-10.26-5.36-10.26-12-10.26m-43.56,1.95-.4-.14a.65.65,0,0,1-.66.33c-.6,0-4-2.14-9.07-2.14-7.06,0-13,3.84-13,10.26,0,7.21,6.36,10.26,12.79,10.26,7.26,0,9.48-3.24,10.34-3.24a.83.83,0,0,1,.35.08l.23-.11-3-4-.29.19a1.4,1.4,0,0,1,.12.49c0,1.24-3.43,3.38-7.43,3.38-4.93,0-9-2-9-7s4.12-7,8.7-7c3.6,0,7.08,1.75,7.08,2.41a2.37,2.37,0,0,1,0,.44l.43.22Z"/><path class="cls-1" d="M443,157.24h.12c.74.78,5.28,5.89,9.73,10.31,4.25,4.21,9.49,9.57,12.06,12,.45.45.94.9,1.39.9s.53-.37.53-1.27l.45-25.81c0-2.29.37-3.15,1.51-3.48a4.46,4.46,0,0,1,1.23-.12q.74,0,.74-.37c0-.33-.41-.37-.94-.37-2,0-3.56.12-4,.12-.86,0-2.82-.12-5-.12-.61,0-1.06,0-1.06.37s.16.37.66.37a6.65,6.65,0,0,1,2.17.25c1,.41,1.35,1.18,1.39,3.68l.41,18.36h-.2c-.7-.65-6.22-6.54-9-9.32-6-5.93-12.19-12.6-12.68-13.13-.69-.74-1.06-1.27-1.51-1.27s-.53.57-.53,1.39L440.14,174c0,3.56-.2,4.74-1.27,5.07a7.28,7.28,0,0,1-1.84.2c-.41,0-.65.08-.65.33s.37.41.9.41c2.13,0,4-.12,4.42-.12.78,0,2.41.12,5.07.12.57,0,.94-.08.94-.41s-.25-.33-.69-.33a6.5,6.5,0,0,1-2.13-.29c-.82-.29-1.35-1.35-1.43-4.54ZM419.64,178.5c-7.85,0-12.56-6.75-12.56-15.25,0-10.18,5.36-12.8,10.06-12.8,6.71,0,12,5.68,12,14.84,0,11.82-6.62,13.21-9.49,13.21m-1.72,2c10.39,0,16.93-7.4,16.93-16.77s-6.34-15.3-16.52-15.3c-12.27,0-16.89,9-16.89,16,0,7.24,4.74,16,16.48,16m-28.28,0a23.69,23.69,0,0,0,7.36-.94,1.45,1.45,0,0,0,1.06-1.19A38.77,38.77,0,0,0,399,173c0-.33-.08-.61-.37-.61s-.41.16-.53.82a6.82,6.82,0,0,1-1.39,2.7c-1.64,1.88-3.84,2.29-7.49,2.29-5.48,0-12.88-4.83-12.88-14.56,0-4,.78-7.85,3.76-10.59,1.8-1.64,4.13-2.54,7.69-2.54,3.76,0,7,1.1,8.3,2.54a5.84,5.84,0,0,1,1.59,3.76c0,.57.08.9.41.9s.45-.33.49-.94c.08-.82,0-3.07.12-4.42s.2-1.92.2-2.25-.16-.45-.61-.49c-1.23-.12-2.54-.49-4.09-.7a40.44,40.44,0,0,0-5.93-.41c-6.09,0-10,1.64-12.92,4.34a16.2,16.2,0,0,0,.29,23.27c3.72,3.23,8.42,4.46,14,4.46m-38.1-13.29c-.16,0-.21-.12-.16-.29l3.76-10.06c0-.17.12-.37.24-.37s.17.2.21.37l3.68,10.1c0,.12,0,.25-.2.25Zm8.3,2a.39.39,0,0,1,.41.29l3.27,8.67a.67.67,0,0,1-.37.94c-.41,0-.57.12-.57.37s.49.29,1.23.33c3.27.08,6.26.08,7.73.08s1.88-.08,1.88-.41-.2-.33-.53-.33a9,9,0,0,1-1.72-.16c-.86-.21-2-.78-3.6-4.46-2.62-6.22-9.16-22.9-10.14-25.15-.41-.94-.66-1.31-1-1.31s-.65.45-1.15,1.64L345,175.48c-.82,2-1.59,3.44-3.48,3.68a12.68,12.68,0,0,1-1.27.08c-.33,0-.49.08-.49.33s.25.41.78.41c2.13,0,4.38-.12,4.83-.12,1.27,0,3,.12,4.33.12.45,0,.7-.08.7-.41s-.12-.33-.61-.33h-.61c-1.27,0-1.64-.53-1.64-1.27a7.92,7.92,0,0,1,.61-2.49l2.21-5.85c.08-.24.16-.33.37-.33Zm-61.48,5.59c-.26,1.74-.66,3.73-2.09,4a6.54,6.54,0,0,1-1.53.15c-.51,0-.82.1-.82.36,0,.46.41.56.92.56,1.63,0,4.09-.15,5.06-.15s3.22.15,5.37.15c.77,0,1.23-.1,1.23-.56,0-.26-.36-.36-.77-.36a9.84,9.84,0,0,1-2.15-.26c-.87-.21-1.53-.66-1.53-1.64a20,20,0,0,1,.15-2.4l2.66-20.35h.21c1.79,3.83,4.86,10.28,5.32,11.35.61,1.43,4.65,9.25,5.88,11.61.82,1.53,1.33,2.56,1.79,2.56s.71-.46,1.89-2.86l11.14-23.21h.2l3.07,22.49c.21,1.43.05,2.1-.25,2.2s-.56.3-.56.56.31.46,1.48.56c2,.15,9.1.31,10.38.31.71,0,1.33-.15,1.33-.56s-.36-.36-.82-.36a10.24,10.24,0,0,1-3.17-.51c-1.53-.46-2-1.95-2.5-5.17l-4.65-31.59c-.15-1.07-.46-1.58-.92-1.58s-.77.41-1.12,1.23l-13.91,29.19-14-28.83c-.66-1.33-1-1.58-1.38-1.58s-.71.46-.87,1.33Zm-42.21-12.83c-.12,0-.24-.08-.24-.29v-.86c0-6.21,0-7.36.08-8.67s.41-2.13,1.51-2.33a7.36,7.36,0,0,1,1.19-.12c.49,0,.74-.08.74-.37s-.28-.37-.86-.37c-1.59,0-4.17.12-5.15.12s-3.68-.12-5.89-.12c-.57,0-.86.08-.86.37s.25.37.7.37a8.49,8.49,0,0,1,1.59.12c1.35.29,1.68.94,1.76,2.33s.08,2.46.08,8.67v7.2c0,3.76,0,7-.21,8.71-.16,1.18-.37,2.08-1.18,2.25a6.67,6.67,0,0,1-1.47.16c-.49,0-.65.12-.65.33s.29.41.82.41c1.64,0,4.21-.12,5.15-.12,1.15,0,3.72.12,6.38.12.49,0,.82-.12.82-.41s-.21-.33-.66-.33a17.19,17.19,0,0,1-2.08-.16c-1.23-.16-1.47-1.06-1.59-2.21-.2-1.76-.2-5-.2-8.75v-3.6c0-.21.12-.25.24-.25h15.62a.24.24,0,0,1,.25.25v3.6c0,3.76,0,7-.21,8.71-.16,1.18-.37,2.08-1.19,2.25a6.67,6.67,0,0,1-1.47.16c-.49,0-.66.12-.66.33s.29.41.86.41c1.6,0,4.17-.12,5.11-.12,1.14,0,3.72.12,6.38.12.49,0,.82-.12.82-.41s-.2-.33-.66-.33a17.18,17.18,0,0,1-2.08-.16c-1.23-.16-1.47-1.06-1.59-2.21-.21-1.76-.21-5-.21-8.75v-7.2c0-6.21,0-7.36.08-8.67s.41-2.13,1.51-2.33a7.36,7.36,0,0,1,1.19-.12c.49,0,.74-.08.74-.37s-.29-.37-.86-.37c-1.59,0-4.17.12-5.15.12s-3.68-.12-5.89-.12c-.57,0-.86.08-.86.37s.24.37.69.37a8.49,8.49,0,0,1,1.59.12c1.35.29,1.68.94,1.76,2.33s.08,2.46.08,8.67v.86c0,.21-.12.29-.25.29Zm-29.22,6.05c0,3.76,0,7-.2,8.71-.16,1.18-.37,2.08-1.18,2.25a6.67,6.67,0,0,1-1.47.16c-.49,0-.65.12-.65.33s.29.41.82.41c1.63,0,4.21-.12,5.15-.12s3.64.12,6.34.12c.45,0,.78-.12.78-.41s-.21-.33-.66-.33a17.23,17.23,0,0,1-2.09-.16c-1.23-.16-1.47-1.06-1.59-2.21-.21-1.76-.21-5-.21-8.75V151.76c0-.45.12-.7.33-.78a5.8,5.8,0,0,1,1.6-.16,6.07,6.07,0,0,1,4.09,1.6,7.87,7.87,0,0,1,2.41,6.13c0,4.17-3.19,6.75-5.48,6.75-.86,0-1.15.12-1.15.45s.29.33.49.37a6.16,6.16,0,0,0,.86,0c5.81,0,10.06-4.09,10.06-9.9a7.11,7.11,0,0,0-2-4.87c-.66-.61-2.5-2.33-7.61-2.33-1.88,0-4.25.12-5.93.12-1.15,0-3.72-.12-5.89-.12-.61,0-.9.08-.9.37s.25.37.7.37a8.5,8.5,0,0,1,1.6.12c1.35.29,1.68.94,1.76,2.33s.08,2.46.08,8.67Zm-18.31-7.2c0-6.21,0-7.36.08-8.67s.41-2.13,1.51-2.33a11,11,0,0,1,1.6-.12c.49,0,.74-.08.74-.37s-.29-.37-.86-.37c-1.6,0-4.58.12-5.56.12s-3.68-.12-5.6-.12c-.61,0-.9.08-.9.37s.24.37.69.37a6.14,6.14,0,0,1,1.35.12c1.35.29,1.68.94,1.76,2.33s.08,2.46.08,8.67v7.2c0,3.76,0,7-.2,8.71-.16,1.18-.37,2.08-1.19,2.25a6.65,6.65,0,0,1-1.47.16c-.49,0-.65.12-.65.33s.29.41.82.41c1.64,0,4.21-.12,5.15-.12,3.31,0,6,.25,11.9.25,2.13,0,2.33-.2,2.58-1.1a32.46,32.46,0,0,0,.61-4.7c0-.49,0-.7-.33-.7s-.41.25-.45.61a5.13,5.13,0,0,1-1.06,2.45c-1,1.1-2.62,1.15-4.79,1.15-3.19,0-4.25-.29-4.95-.9-.86-.74-.86-3.56-.86-8.79ZM182.26,178.5c-7.85,0-12.55-6.75-12.55-15.25,0-10.18,5.36-12.8,10.06-12.8,6.71,0,12,5.68,12,14.84,0,11.82-6.62,13.21-9.49,13.21m-1.72,2c10.39,0,16.93-7.4,16.93-16.77s-6.34-15.3-16.52-15.3c-12.27,0-16.89,9-16.89,16,0,7.24,4.74,16,16.48,16m-43.69-20.29c0-3.23,0-6.79,0-8.18a.74.74,0,0,1,.49-.82A11,11,0,0,1,140,151c3.19,0,7.85.49,11.62,4.09a13.9,13.9,0,0,1,3.93,10.22c0,4.21-.82,7.94-3.44,10.18-2.45,2.13-5.24,2.94-9.41,2.94-3.23,0-4.82-.86-5.36-1.63a8.92,8.92,0,0,1-.45-3.11c0-.78-.08-3.93-.08-8.26Zm-5.11,7.85c0,3.76,0,7-.2,8.71-.16,1.18-.37,2.08-1.19,2.25a6.66,6.66,0,0,1-1.47.16c-.49,0-.66.12-.66.33s.29.41.82.41c1.64,0,4.21-.12,5.15-.12,2,0,5.73.49,8.71.49,7.57,0,11.82-2.9,13.7-4.83a16.25,16.25,0,0,0,4.46-11.41,14.61,14.61,0,0,0-4-10.39c-4.46-4.66-11.29-4.66-16.4-4.66-2.45,0-5,.12-6.3.12s-3.72-.12-5.89-.12c-.61,0-.9.08-.9.37s.25.37.7.37a8.48,8.48,0,0,1,1.59.12c1.35.29,1.68.94,1.76,2.33s.08,2.46.08,8.67ZM98.43,157.24h.12c.74.78,5.28,5.89,9.73,10.31,4.25,4.21,9.49,9.57,12.06,12,.45.45.94.9,1.39.9s.53-.37.53-1.27l.45-25.81c0-2.29.37-3.15,1.51-3.48a4.48,4.48,0,0,1,1.23-.12q.74,0,.74-.37c0-.33-.41-.37-.94-.37-2,0-3.56.12-4,.12-.86,0-2.82-.12-4.95-.12-.61,0-1.06,0-1.06.37s.16.37.66.37a6.65,6.65,0,0,1,2.17.25c1,.41,1.35,1.18,1.39,3.68l.41,18.36h-.2c-.69-.65-6.22-6.54-9-9.32-6-5.93-12.19-12.6-12.68-13.13-.7-.74-1.06-1.27-1.52-1.27s-.53.57-.53,1.39L95.57,174c0,3.56-.2,4.74-1.27,5.07a7.29,7.29,0,0,1-1.84.2c-.41,0-.65.08-.65.33s.37.41.9.41c2.13,0,4-.12,4.42-.12.78,0,2.41.12,5.07.12.57,0,.94-.08.94-.41s-.25-.33-.69-.33a6.5,6.5,0,0,1-2.13-.29c-.82-.29-1.35-1.35-1.43-4.54Zm-24.95,10c-.16,0-.21-.12-.16-.29l3.76-10.06c0-.17.12-.37.25-.37s.16.2.2.37L81.21,167c0,.12,0,.25-.2.25Zm8.3,2a.4.4,0,0,1,.41.29l3.27,8.67a.67.67,0,0,1-.37.94c-.41,0-.57.12-.57.37s.49.29,1.23.33C89,180,92,180,93.48,180s1.88-.08,1.88-.41-.2-.33-.53-.33a9,9,0,0,1-1.72-.16c-.86-.21-2-.78-3.6-4.46-2.62-6.22-9.16-22.9-10.14-25.15-.41-.94-.65-1.31-1-1.31s-.65.45-1.14,1.64L66.94,175.48c-.82,2-1.6,3.44-3.48,3.68a12.65,12.65,0,0,1-1.27.08c-.33,0-.49.08-.49.33s.24.41.78.41c2.13,0,4.38-.12,4.83-.12,1.27,0,3,.12,4.33.12.45,0,.7-.08.7-.41s-.12-.33-.61-.33h-.61c-1.27,0-1.64-.53-1.64-1.27a7.92,7.92,0,0,1,.61-2.49l2.21-5.85c.08-.24.16-.33.37-.33ZM41.17,144.68c0-.41.1-.61.46-.71a11.22,11.22,0,0,1,2.71-.2c3,0,7.82,2.1,7.82,9.35,0,4.19-1.48,6.54-3,7.67-.92.66-1.58.87-3.63.87a13.45,13.45,0,0,1-3.88-.51c-.36-.15-.46-.36-.46-.92Zm-6,20.5c0,4.7,0,8.74-.26,10.89-.2,1.48-.46,2.61-1.48,2.81a8.26,8.26,0,0,1-1.84.21c-.61,0-.82.15-.82.41s.36.51,1,.51c2,0,5.27-.15,6.24-.15.77,0,4.55.15,7.52.15.66,0,1-.15,1-.51s-.2-.41-.61-.41a23.19,23.19,0,0,1-2.51-.21c-1.53-.21-1.84-1.33-2-2.81-.26-2.15-.26-6.19-.26-10.94v-.72c0-.3.15-.41.41-.41l4.45.1a1.07,1.07,0,0,1,.92.36c.66.77,3,4.24,5.06,7.06,2.86,3.94,4.8,6.34,7,7.51,1.33.72,2.61,1,5.47,1h4.86c.61,0,1-.1,1-.51,0-.26-.2-.41-.61-.41a7.93,7.93,0,0,1-1.43-.15c-.77-.15-2.86-.51-5.73-3.48-3-3.17-6.54-7.72-11.09-13.45,5.16-4.19,6.75-7.67,6.75-11.45a8.87,8.87,0,0,0-3.48-7c-2.76-1.89-6.19-2.2-9.41-2.2-1.58,0-5.47.15-7.21.15-1.07,0-4.29-.15-7-.15-.77,0-1.12.1-1.12.46s.31.46.87.46a10.54,10.54,0,0,1,2,.15c1.69.36,2.1,1.18,2.2,2.91s.1,3.07.1,10.84Z"/><polygon class="cls-1" points="282.82 166.15 293.7 166.15 294.17 163.08 282.82 163.08 282.82 166.15"/><path class="cls-1" d="M204.31,48.92s-9.16,0-9.16,9.16v64.16s0,9.16,9.16,9.16h91.81s9.16,0,9.16-9.16V58.07s0-9.16-9.16-9.16Z"/><path class="cls-2" d="M296.12,132.07H204.31c-9.47,0-9.58-9.54-9.58-9.64V57.88c0-9.53,9.49-9.64,9.58-9.64h91.81c9.47,0,9.58,9.54,9.58,9.64v64.55C305.7,132,296.22,132.07,296.12,132.07Zm-91.81-83c-.36,0-8.73.12-8.73,8.79v64.55c0,.36.12,8.79,8.73,8.79h91.81c.36,0,8.73-.12,8.73-8.79V57.88c0-.36-.12-8.79-8.73-8.79H204.31Z"/><path class="cls-3" d="M205.68,53.2s-5.87,0-5.87,5.83v62.19s0,5.83,5.87,5.83h89.14s5.87,0,5.87-5.83V59s0-5.83-5.87-5.83Z"/><path class="cls-1" d="M217.68,115.17l-2.7.73v4.77L206,124.8V127H294v-2.24l-9.25-4.14h0V116a.57.57,0,0,0-.41-.55l-2.07-.62v-5.89a.57.57,0,0,0-.39-.54l-.77-.26V79.71l1.4-.52a.57.57,0,0,0,.37-.46L283,77.5a2.23,2.23,0,0,1,2-1,.57.57,0,0,0,.56-.49L287,65.35v-2a.57.57,0,0,0-.36-.53L282,61c-.61-1.36-3.92-8.33-9.67-12.38a60.51,60.51,0,0,0-14.45-6.81V37l.63-.64c.06-.07,0-.14,0-.24l0-2.89c0-.16,0-.3-.17-.36l-1.25-.5L252,28.53c-1.1-.75-1.8-1.33-2.33-1.33s-1.37.59-2.53,1.38c0,0-5,3.79-5.58,4.27l-1.09.45a.38.38,0,0,0-.24.35v2.84a.38.38,0,0,0,.11.27L241.49,38l0,0V41.8c-4.46,1.31-11.11,4-14.65,7a36.25,36.25,0,0,0-8.78,11.53l-5.57,2.25v2.83l1.38,11.07h.5a2.89,2.89,0,0,1,2.38,1l.17,1.45,1.87.94V108.4l-1.16.43Z"/><rect class="cls-1" x="253.29" y="84.05" width="5.09" height="8.69"/><polygon class="cls-1" points="253.29 83.39 258.38 83.39 258.38 75.14 258.38 75.07 253.29 75.07 253.29 83.39"/><path class="cls-1" d="M247.08,83.39V75.07h-5s0,.06,0,.06v8.26Z"/><path class="cls-1" d="M250.45,71.55a3,3,0,0,1,2.82,2.85h5.07a8.68,8.68,0,0,0-2.18-5.19,7.84,7.84,0,0,0-5.71-2.16Z"/><rect class="cls-1" x="242.06" y="84.05" width="5.02" height="8.69"/><rect class="cls-1" x="247.75" y="75.07" width="4.87" height="8.32"/><rect class="cls-1" x="247.75" y="93.41" width="4.87" height="8.87"/><path class="cls-1" d="M247.09,74.4a3.37,3.37,0,0,1,.84-2,2.78,2.78,0,0,1,1.86-.82V67.06a7.75,7.75,0,0,0-5.51,2.16,8.67,8.67,0,0,0-2.18,5.18Z"/><rect class="cls-1" x="242.06" y="93.41" width="5.02" height="8.87"/><path class="cls-1" d="M247.76,74.4h4.83a2.36,2.36,0,0,0-2.47-2.2,2.27,2.27,0,0,0-1.71.63,2.71,2.71,0,0,0-.65,1.58"/><rect class="cls-1" x="247.75" y="84.05" width="4.87" height="8.69"/><rect class="cls-1" x="253.29" y="93.41" width="5.09" height="8.87"/><path class="cls-2" d="M250.22,66.1a8.84,8.84,0,0,0-6.63,2.46,9.87,9.87,0,0,0-2.48,6.58v28.09h18.22V75.16a9.87,9.87,0,0,0-2.48-6.6,8.84,8.84,0,0,0-6.63-2.46m8.12,8.31h-5.07a3,3,0,0,0-2.82-2.85V67.05a7.83,7.83,0,0,1,5.71,2.16,8.68,8.68,0,0,1,2.18,5.19m0,.74v8.25h-5.09V75.07h5.09Zm0,17.61h-5.09V84.05h5.09ZM242.06,75.07h5v8.32h-5V75.13s0,0,0-.06m0,9h5v8.69h-5Zm10.53-9.65h-4.83a2.7,2.7,0,0,1,.65-1.58,2.26,2.26,0,0,1,1.71-.63,2.36,2.36,0,0,1,2.47,2.2m0,9h-4.87V75.07h4.87Zm0,9.36h-4.87V84.05h4.87Zm-4.87.67h4.87v8.87h-4.87Zm-3.47-24.2a7.74,7.74,0,0,1,5.52-2.16v4.49a2.77,2.77,0,0,0-1.86.82,3.37,3.37,0,0,0-.84,2h-5a8.66,8.66,0,0,1,2.18-5.18m-2.21,24.2h5v8.87h-5Zm11.23,0h5.09v8.87h-5.09Z"/><path class="cls-2" d="M272.33,69.54a4,4,0,0,0-4.45.76c-1.9,1.94-1.83,5.78-1.83,5.93v27.84l12.29,4.1V80.05c0-.34.12-8.48-6-10.52m-2.19,8v8.3l-3.24-1.15V76.38Zm-3.24,7.76,3.24,1.16v8.66l-3.24-1.08Zm5.28-10.21c1.51.5,1.62,2.67,1.63,3.15l-3.07-1.17c0-.44,0-1.52.55-1.91a.94.94,0,0,1,.89-.07m1.63,3.79v8.27L270.75,86v-8.3Zm0,8.88v8.58l-3.07-1.06V86.65Zm0,9.22v8.78l-3.07-1.06V95.94Zm3.67-8.52-3.11-1.14V79.08l3.11,1.17ZM274.38,88l3.11,1.14v8.49l-3.11-1.06Zm3.1-8.36-3.1-1.16h0c0-.12,0-3.16-1.93-3.9,0,0,0,0,0,0v-4c4.39,1.79,5,7.46,5,9.08m-9-8.7a3.17,3.17,0,0,1,3.49-.57V74.4c-1.65-.35-1.8,2-1.83,2.52l-3.24-1.18c0-1,.29-3.53,1.58-4.83m-1.59,23.85,3.24,1v8.78l-3.24-1.08Zm7.47,11.19V97.16l3.11,1.06V107Z"/><path class="cls-2" d="M284.68,120.67v-5.16l-2.48-.78v-6.32L281,108V79.71l1.7-.64L283,77.5a2.5,2.5,0,0,1,2.45-1L287,65.35V62.93L282,61c-.61-1.36-3.92-8.33-9.67-12.38A59.79,59.79,0,0,0,258,41.83V37l.64-.8V33l-1.5-.61L252,28.53c-.67-.49-1.68-1.33-2.33-1.33s-1.86.89-2.43,1.32c0,0-5.37,4-5.65,4.27l-1.39.59v3.28l1.3,1.33V41.8c-4.46,1.31-11.11,4-14.65,7a36.24,36.24,0,0,0-8.78,11.53l-5.57,2.25v2.82l1.38,11.07h.5a2.88,2.88,0,0,1,2.38,1l.18,1.45,1.87.94v27.84l-1.16.39v6.84l17.83-6.09h1.39V64.22l-18.06,7.14v6.19l-.89-6.8,19-7.49-1.62-1.14H264l19,7.16-1.12,8.94-.91.32-.34-6.05a.19.19,0,0,0-.38,0l-.33,6.75a.5.5,0,0,0,0,.09v29.5l1.17.37v5.68l-17.4-5.06h-.86V64H262v45.79H235.55l-.08,0h-.07l-17.55,5.23-2.88.84v4.77L206,124.8V127H294v-2.24Zm-13-71.09c4.66,3.28,7.71,8.72,8.86,11l-14.66-5.48h-2.3A40.1,40.1,0,0,0,261,48.46a16.07,16.07,0,0,0-4.6-5.92,59.3,59.3,0,0,1,15.28,7m-14.84-8.09a17,17,0,0,0-3.64-.83V33.71l3.63,1.47Zm-8-13c.35-.36.89-.23,1.34.07.71.47,5.78,4,5.78,4l-3.08-1.36h-6.18S248.63,28.73,248.87,28.48ZM241,36.1V33.91l4.9-2.2h6.93l5,2.24c0,.09,0,2.16,0,2.16l-.5.58V34.61l-4.6-1.85h-7.06l-4.14,1.89v2Zm11.62-2.6v7.11h-6.67V33.5Zm-8.95,8.8h0a7.1,7.1,0,0,1,2.52-.5l6.64,0a4.46,4.46,0,0,1,2.18.39c4.48,2.23,6.93,10.73,7.47,13h-26c.51-2.27,2.65-10.64,7.19-12.82M213.92,64.74V63.57l19.43-7.33v1.17Zm20.17-8.6h31.36l16,5.88,4.48,1.74v1L265.83,57.3H234.09Zm30.11,5.24-29.13,0,0-1.24a4.43,4.43,0,0,0-1-2.08h31.45l19.69,7.2A3.34,3.34,0,0,0,283,67.34v1.13Zm19.54,7.94,0-.27v-1.5a3,3,0,0,1,2-1.74l-1.37,9.57a3.38,3.38,0,0,0-1.51.55Zm-.21,50.77-18.23-5.27,9,8.52.78.61L275,124l-.06.08-12.21-9.52H237.85l-12.32,9.9-.12-.15.67-.54,9.39-9.43.07-3.52h28l20,5.72Z"/><path class="cls-1" d="M221.84,80.07l.06,27.48,11.75-4,.06-27.3c0-.15.25-3.68-1.65-5.62a3.93,3.93,0,0,0-4.37-.85c-6.13,2-5.86,9.93-5.85,10.27"/><path class="cls-2" d="M221.63,80.05v27.83l12.29-4.1V76.23c0-.15.06-4-1.83-5.93a4,4,0,0,0-4.45-.77c-6.13,2-6,10.17-6,10.52m11.44-3.7v8.36l-3.24,1.15V77.54Zm0,17.71-3.24,1.08V86.47l3.24-1.16Zm-4.39-18.89c.54.39.57,1.48.58,1.91l-3.1,1.17c0-.48.12-2.64,1.63-3.15a.94.94,0,0,1,.89.07m.58,2.54V86l-3.1,1.14V78.88Zm0,8.93V95.3l-3.1,1.06V87.78Zm0,9.31v8.46l-3.1,1.06V97Zm-6.77-15.72,3.13-1.1v8.29l-3.12,1.07ZM225.6,96.6l-3.12,1v-8.5L225.6,88Zm1.91-26.08v4.13c0-.11,0,0,0,0-1.91.74-1.91,3.74-1.9,3.86h0l-3.12,1.1c.07-1.62.63-7.3,5-9.08m5.54,5.22-3.24,1.18c0-.48,0-2.68-1.83-2.44V70.32a3.17,3.17,0,0,1,3.49.57c1.28,1.31,1.53,3.79,1.58,4.83m0,27.44-3.24,1.08V95.79l3.24-1.08Zm-10.58,3.53V98.24l3.13-1v8.46Z"/></svg>