<?xml version="1.0" encoding="UTF-8"?><svg id="Art" xmlns="http://www.w3.org/2000/svg" viewBox="0 0 313.66 41.46"><defs><style>.cls-1{fill:#fff;stroke-width:0px;}</style></defs><path class="cls-1" d="m30.17,26.85l-4-5.21h-.06c-.46-.05-1.24-.14-2-.29,3.69-.52,5.71-2.15,5.71-4.64,0-2.71-2.85-4.33-7.62-4.33h-9.36v.4l1.94,2.1v11.7l-1.94,2.1v.4h8.33v-.4l-1.95-2.1v-5.01h1.7c.19,0,.56,0,.93-.04l4.31,7.54h6.19v-.4l-2.18-1.82Zm-9.17-6.18h-1.78v-7.39h1.78c2.74,0,4.02,1.12,4.02,3.53,0,1.76-.7,3.85-4.02,3.85Z"/><path class="cls-1" d="m43.28,21.11c0-1.92-.48-4.13-4.26-4.13-2.06,0-3.99.76-5.31,2.09l-.08.09.29.43.12-.07c.97-.55,1.86-.79,2.9-.79,1.7,0,2.57.76,2.57,2.25v1.3c-4.02.37-6.61,2.09-6.61,4.39,0,1.62,1.25,2.67,3.19,2.67,1.29,0,2.58-.57,3.59-1.58l.37,1.29h4.44v-.31l-1.2-1.91v-5.72Zm-3.78,1.91v3.93c-.41.3-.92.45-1.51.45-.97,0-1.46-.54-1.46-1.61,0-1.39,1.1-2.42,2.97-2.78Z"/><path class="cls-1" d="m58.57,20.45c0-2.02-1.56-3.49-3.71-3.49-1.42,0-2.82.58-3.98,1.64v-1.42l-.21-.23-4.84,1.06v.37l1.28,1.07v7.85l-1.4,1.41v.38h6.51v-.37l-1.33-1.42v-7.72c.53-.53,1.27-.83,2.09-.83,1.16,0,1.82.69,1.82,1.88v6.67l-1.33,1.41v.37h6.51v-.38l-1.4-1.42v-6.82Z"/><path class="cls-1" d="m73.07,11.78l-.27-.21-4.59,1.06v.36l1.08,1.07v3.4c-.59-.32-1.29-.49-2.03-.49-3.81,0-6.36,2.68-6.36,6.67,0,3.42,1.89,5.72,4.7,5.72,1.79,0,2.98-.85,3.82-1.66l.4,1.37h4.44s0-.31,0-.31l-1.18-1.91v-15.05Zm-3.78,7.76v7.29c-.53.42-1.13.63-1.78.63-1.71,0-2.66-1.66-2.66-4.67s1.04-5.04,2.77-5.04c.89,0,1.48.64,1.67,1.79Z"/><path class="cls-1" d="m81.25,16.95c-3.65,0-6.41,2.66-6.41,6.19s2.76,6.19,6.41,6.19,6.42-2.66,6.42-6.19-2.76-6.19-6.42-6.19Zm0,.72c1.57,0,2.47,1.99,2.47,5.47s-.9,5.48-2.46,5.48-2.46-1.95-2.46-5.48.87-5.47,2.45-5.47Z"/><polygon class="cls-1" points="93.23 11.78 92.99 11.56 88.39 12.62 88.39 12.99 89.46 14.05 89.46 27.28 88.06 28.69 88.06 29.07 94.63 29.07 94.63 28.69 93.23 27.27 93.23 11.78"/><path class="cls-1" d="m103.81,16.95c-1.3,0-2.51.51-3.44,1.45v-1.24l-.22-.22-4.84,1.06v.37l1.29,1.07v12.57l-1.4,1.42v.38h6.74v-.38l-1.56-1.42v-3.18c.42.24,1.13.52,2.1.52,3.81,0,6.27-2.57,6.27-6.55,0-3.49-1.98-5.84-4.93-5.84Zm.98,6.6c0,3.13-1.06,5.07-2.76,5.07-.68,0-1.27-.43-1.67-1.21v-8.1c.46-.42,1.01-.64,1.62-.64,1.81,0,2.8,1.73,2.8,4.88Z"/><path class="cls-1" d="m122.52,20.45c0-2.02-1.56-3.49-3.71-3.49-1.77,0-3.1.85-3.97,1.65v-6.81l-.24-.22-4.61,1.06v.37l1.07,1.05v13.24l-1.4,1.39v.4h6.51v-.4l-1.33-1.4v-7.71c.54-.55,1.25-.84,2.06-.84,1.19,0,1.85.67,1.85,1.88v6.67l-1.33,1.39v.4h6.51v-.4l-1.41-1.4v-6.82Z"/><polygon class="cls-1" points="146.08 23.4 139.36 12.39 133.45 12.39 133.45 12.79 135.65 14.78 135.65 26.45 133.56 28.68 133.56 29.07 138.62 29.07 138.62 28.68 136.53 26.45 136.53 16.31 143.4 27.8 144.56 27.8 151.47 15.78 151.47 26.58 149.54 28.68 149.54 29.07 157.86 29.07 157.86 28.68 155.92 26.58 155.92 14.88 157.86 12.78 157.86 12.39 152.31 12.39 146.08 23.4"/><path class="cls-1" d="m169.23,21.11c0-1.92-.48-4.13-4.26-4.13-2.06,0-3.99.76-5.31,2.09l-.08.09.29.43.12-.07c.97-.55,1.86-.79,2.9-.79,1.7,0,2.57.76,2.57,2.25v1.3c-4.02.37-6.61,2.09-6.61,4.39,0,1.62,1.25,2.67,3.19,2.67,1.29,0,2.58-.57,3.59-1.58l.37,1.29h4.44v-.31l-1.2-1.91v-5.72Zm-3.78,1.91v3.93c-.41.3-.92.45-1.51.45-.97,0-1.46-.54-1.46-1.61,0-1.39,1.1-2.42,2.97-2.78Z"/><path class="cls-1" d="m181.77,26.19c-.71.6-1.91,1-3.03,1-2.2,0-3.63-1.8-3.63-4.83s.97-4.44,3.16-4.44,2.46,3.36,2.46,3.36h.44l.57-3.62-.11-.04c-.87-.33-2.44-.66-3.76-.66-3.89,0-6.6,2.65-6.6,6.46,0,3.55,2.28,5.93,5.67,5.93,2.23,0,3.94-.87,5.1-2.58-.1-.19-.19-.38-.27-.57Z"/><path class="cls-1" d="m227.26,13.02c2.94,0,4.76,1.62,6.04,4.95l.04.09h.53l-.17-5.01-.1-.03c-2.35-.62-4.32-.89-6.4-.89-6.22,0-10.4,3.52-10.4,8.77,0,4.97,4.24,8.44,10.32,8.44,2.24,0,4-.24,6.48-.89l.1-.03.17-5.01h-.53l-.04.09c-.88,2.26-2.41,4.95-5.9,4.95-3.7,0-5.82-2.78-5.82-7.62s2.07-7.82,5.69-7.82Z"/><path class="cls-1" d="m242.19,16.95c-3.65,0-6.41,2.66-6.41,6.19s2.76,6.19,6.41,6.19,6.42-2.66,6.42-6.19-2.76-6.19-6.42-6.19Zm0,.72c1.57,0,2.47,1.99,2.47,5.47s-.9,5.48-2.46,5.48-2.46-1.95-2.46-5.48.87-5.47,2.45-5.47Z"/><polygon class="cls-1" points="254.45 11.78 254.21 11.56 249.6 12.62 249.6 12.99 250.67 14.05 250.67 27.28 249.27 28.69 249.27 29.07 255.85 29.07 255.85 28.69 254.45 27.27 254.45 11.78"/><polygon class="cls-1" points="262.41 11.78 262.17 11.56 257.56 12.62 257.56 12.99 258.63 14.05 258.63 27.28 257.23 28.69 257.23 29.07 263.81 29.07 263.81 28.69 262.41 27.27 262.41 11.78"/><path class="cls-1" d="m284.74,26.54h-3.35c-1.46,0-1.9-.19-1.9-.82,0-.42.3-.74.57-.94.79.32,1.64.47,2.61.47,3.13,0,5.41-1.74,5.41-4.14,0-.96-.37-1.83-1.09-2.56l2.34.11v-2.7s-.31-.08-.31-.08l-3.1,1.9c-.94-.55-2.04-.83-3.26-.83-2.69,0-5.41,1.42-5.41,4.12,0,1.4.72,2.58,2.04,3.36-.89.58-1.95,1.5-1.95,2.92,0,.89.42,1.56,1.23,1.97-1.39.56-2.11,1.33-2.11,2.24,0,1.54,2.16,2.39,6.09,2.39,4.25,0,7-1.55,7-3.96,0-2.26-1.67-3.45-4.82-3.45Zm-1.92,6.61c-1.79,0-3.92-.38-3.92-2.19,0-.56.3-.97.58-1.27,1.23.3,2.75.26,4.1.22.36,0,.7-.02,1.03-.02,1.63,0,2.33.4,2.33,1.32,0,1.6-2.24,1.94-4.11,1.94Zm-.15-8.7c-1.13,0-1.63-1.03-1.63-3.34s.49-3.36,1.63-3.36,1.62,1.04,1.62,3.36-.5,3.34-1.62,3.34Z"/><path class="cls-1" d="m270.54,16.95c-3.55,0-6.03,2.64-6.03,6.41,0,3.58,2.3,5.98,5.72,5.98,2.35,0,4.08-.94,5.31-2.88l.07-.11-.36-.31-.1.08c-.79.67-1.96,1.07-3.12,1.07-2.26,0-3.66-1.72-3.66-4.5v-.16h7.45v-.15c0-3.25-2.12-5.43-5.27-5.43Zm-.17.79c1.15,0,1.68,1.18,1.71,3.82h-3.67c.13-1.62.56-3.82,1.96-3.82Z"/><path class="cls-1" d="m300.83,22.53v-.15c0-3.25-2.12-5.43-5.27-5.43-3.55,0-6.03,2.64-6.03,6.41,0,3.58,2.3,5.98,5.72,5.98,2.35,0,4.08-.94,5.31-2.88l.07-.11-.36-.31-.1.08c-.79.67-1.96,1.07-3.12,1.07-2.26,0-3.66-1.72-3.66-4.5v-.16h7.45Zm-5.44-4.78c1.15,0,1.68,1.18,1.71,3.82h-3.67c.13-1.62.56-3.82,1.96-3.82Z"/><path class="cls-1" d="m189.24,16.95c-3.65,0-6.41,2.66-6.41,6.19s2.76,6.19,6.41,6.19,6.42-2.66,6.42-6.19-2.76-6.19-6.42-6.19Zm0,.72c1.57,0,2.47,1.99,2.47,5.47s-.9,5.48-2.46,5.48-2.46-1.95-2.46-5.48.87-5.47,2.45-5.47Z"/><path class="cls-1" d="m208.98,20.45c0-2.02-1.56-3.49-3.71-3.49-1.42,0-2.82.58-3.98,1.64v-1.42l-.21-.23-4.84,1.06v.37l1.28,1.07v7.85l-1.4,1.41v.38h6.51v-.37l-1.33-1.42v-7.72c.53-.53,1.27-.83,2.09-.83,1.16,0,1.82.69,1.82,1.88v6.67l-1.33,1.41v.37h6.51v-.38l-1.4-1.42v-6.82Z"/><polygon class="cls-1" points="132.36 23.62 126.24 23.62 125.96 22.69 126.24 21.75 132.36 21.75 132.64 22.69 132.36 23.62"/></svg>